<?xml version="1.0" encoding="utf-8"?>
<!-- Uploaded to: SVG Repo, www.svgrepo.com, Generator: SVG Repo Mixer Tools -->
<!DOCTYPE svg PUBLIC "-//W3C//DTD SVG 1.1//EN" "http://www.w3.org/Graphics/SVG/1.1/DTD/svg11.dtd">
<svg fill="#000000" width="800px" height="800px" viewBox="0 0 1000 1000" version="1.1" xmlns="http://www.w3.org/2000/svg" xmlns:xlink="http://www.w3.org/1999/xlink"  enable-background="new 0 0 1000 1000" xml:space="preserve">

<g>
<g transform="translate(0.000000,511.000000) scale(0.100000,-0.100000)">
<path d="M6234.8,4156.7c-57.9-23.2-71.4-48.3-98.5-183.4c-110.1-523.3-594.7-847.7-1222.3-814.8c-225.9,11.6-332.1,40.6-507.8,133.2c-227.9,121.6-411.3,359.1-527.1,679.7c-71.4,193.1-83,200.8-341.8,169.9c-511.7-56-1091-368.8-1558.2-838C1255,2575.3,780,1457.3,445.9-307.5c-169.9-897.9-326.3-2263-343.7-3012.2c-5.8-185.4-1.9-210.5,32.8-245.2c30.9-30.9,160.3-59.8,687.4-148.7c392-67.6,668.1-104.3,699-96.5c29,5.8,65.7,32.8,81.1,56c15.4,25.1,77.2,260.7,133.2,523.3c57.9,262.6,110.1,482.7,113.9,488.5c5.8,3.9,15.4-73.4,23.2-171.9c17.4-247.2,54.1-368.8,115.9-397.8c38.6-17.4,793.6-23.2,3021.9-23.2h2971.7l50.2,44.4c46.3,38.6,56,69.5,86.9,283.8c17.4,133.2,38.6,227.9,44.4,212.4c5.8-15.4,56-227.8,110.1-473.1c56-252.9,113.9-465.3,133.2-492.4c25.1-34.7,56-50.2,112-54.1c96.6-7.7,1297.6,202.8,1334.2,233.6c56,46.3,59.9,112,21.3,587C9666-305.6,9237.3,1538.4,8569.2,2615.9c-517.5,836.1-1268.6,1388.3-2079.6,1531.2C6296.5,4179.9,6290.8,4179.9,6234.8,4156.7z M6628.7,3797.6c71.4-29,131.3-54.1,135.2-56c11.6-9.7-42.5-197-94.6-322.5c-224-546.4-743.4-948.1-1286-994.4l-140.9-11.6v212.4c0,148.7,7.7,220.1,25.1,231.7c11.6,11.6,85,34.8,158.3,52.1c278.1,67.6,544.5,237.5,714.4,451.8c96.5,119.7,214.3,345.6,233.6,446c11.6,57.9,17.4,61.8,69.5,52.1C6474.2,3853.6,6557.2,3824.6,6628.7,3797.6z M3504.5,3803.4c0-73.4,160.3-345.6,272.3-467.3c260.7-278,614-440.2,1056.2-484.7l139-13.5v-227.9c0-268.4,21.2-251-252.9-198.9c-766.6,144.8-1301.4,573.5-1465.6,1172.1c-23.2,83-38.6,160.3-32.8,173.8C3236.1,3805.3,3504.5,3849.7,3504.5,3803.4z M3021.7,3573.6c29-117.8,125.5-372.7,166.1-436.4c27-42.5,25.1-48.3-25.1-86.9c-444.1-347.6-865-861.2-1114.1-1359.4C1878.6,1351.1,1786,1030.6,1728,584.6c-52.1-399.7-42.5-1326.5,19.3-2114.3l15.4-193.1l-200.8-896c-110.1-494.3-202.7-897.9-206.6-899.8c-7.7-7.7-940.4,177.6-951.9,189.2c-11.6,11.6,38.6,731.8,81.1,1152.8C706.6,22.7,1115.9,1619.5,1683.6,2496.1c316.7,486.6,706.7,865,1125.7,1089c90.8,48.3,169.9,88.8,177.7,88.8C2992.8,3674,3010.1,3627.7,3021.7,3573.6z M7215.7,3554.3c523.3-316.7,969.3-814.8,1287.9-1440.4c401.6-789.7,712.5-2010.1,909.4-3579.9c59.9-488.5,127.4-1206.8,150.6-1612.3l13.5-254.9l-48.3-11.6c-214.3-44.4-897.9-142.9-909.5-131.3c-5.8,9.6-94.6,397.8-193.1,865l-181.5,849.6l23.2,318.6c11.6,175.7,29,588.9,36.7,917.2c25.1,1089-44.4,1523.5-332.1,2104.7c-237.5,475-639.1,982.8-1073.6,1355.5l-71.4,59.8l92.7,181.5c50.2,98.5,113.9,237.5,139,310.9c25.1,71.4,48.3,129.4,50.2,129.4C7113.3,3616.1,7159.7,3589,7215.7,3554.3z M3463.9,2687.3c380.4-339.8,851.5-544.5,1398-608.2l110.1-11.6V-479.4v-2546.8H3581.7H2191.4l-9.7,44.4c-3.9,23.2-25.1,185.4-46.3,361.1c-212.4,1776.4-227.9,2906-50.2,3572.2c98.5,366.9,324.4,812.9,604.4,1187.5c121.7,166.1,594.7,666.2,627.5,666.2C3326.8,2805.1,3392.5,2753,3463.9,2687.3z M6825.6,2567.6c372.7-330.2,652.6-685.5,839.9-1065.9c254.9-513.6,287.7-747.3,287.7-1998.5c1.9-699-5.8-984.8-32.8-1293.7c-30.9-363-90.8-919.1-121.7-1143.1l-13.5-92.7H6534.1H5280.9V-462v2566.2l162.2,30.9c424.8,85,868.9,307,1100.6,552.2c32.8,32.8,61.8,59.9,67.6,59.9C6617.1,2747.2,6713.6,2666.1,6825.6,2567.6z"/>
<path d="M1930.8-3690.5c-63.7-63.7-63.7-152.5,0-214.3l46.3-48.3h2946.6h2946.6l46.3,48.3c63.7,61.8,63.7,142.9-1.9,204.7l-50.2,46.3l-2942.7,5.8l-2944.6,3.9L1930.8-3690.5z"/>
</g>
</g>
</svg>