<?xml version="1.0" encoding="utf-8"?>
<!-- Uploaded to: SVG Repo, www.svgrepo.com, Generator: SVG Repo Mixer Tools -->
<!DOCTYPE svg PUBLIC "-//W3C//DTD SVG 1.1//EN" "http://www.w3.org/Graphics/SVG/1.1/DTD/svg11.dtd">
<svg fill="#000000" width="800px" height="800px" viewBox="0 0 1000 1000" version="1.1" xmlns="http://www.w3.org/2000/svg" xmlns:xlink="http://www.w3.org/1999/xlink"  enable-background="new 0 0 1000 1000" xml:space="preserve">

<g>
<g transform="translate(0.000000,512.000000) scale(0.100000,-0.100000)">
<path d="M4659.2,4948.5c-690.8-88.8-1225.4-478.6-1555.3-1134.7c-166-330-260.5-735.2-233.5-1007.3c13.5-150.5,57.9-314.5,102.3-382.1c38.6-57.9,77.2-25.1-416.8-343.5c-420.7-268.2-536.5-360.8-714-567.3c-320.3-372.4-492.1-710.1-742.9-1456.9C998.5-240.5,880.8-570.5,838.4-676.6c-94.6-237.3-351.2-1015-416.8-1263.9C294.2-2419.1,247.9-2859.1,276.8-3274c13.5-198.8,25.1-264.4,52.1-293.3c86.8-98.5,941.7-476.7,1074.8-476.7c247,0,721.7,467,922.4,908.9l65.6,142.8l25.1-77.2c65.6-204.5,227.7-476.6,403.3-681.2c63.7-75.3,117.7-154.4,117.7-175.6c0-25.1,15.4-44.4,44.4-50.2c23.2-5.8,947.5-7.7,2053.2-5.8l2010.8,5.8l88.8,86.8c169.8,164,349.3,465.1,490.2,820.1c11.6,30.9,32.8,3.9,108.1-142.8c171.7-331.9,440-640.6,710.1-814.3c177.5-115.8,245.1-106.1,708.2,98.4c100.4,44.4,252.8,119.7,339.6,167.9c169.8,94.5,198.8,131.2,239.3,314.5c28.9,131.2,23.2,540.3-11.6,770c-83,575.1-343.5,1455-741,2520.2c-312.6,835.6-530.7,1240.8-893.4,1663.4c-179.5,210.3-285.6,297.2-631,517.2c-164,104.2-345.4,220-399.5,254.7l-102.3,65.6l50.2,73.3c135.1,206.5,175.6,505.6,113.9,872.2c-152.5,914.7-706.3,1474.3-1611.3,1626.7C5278.6,4956.2,4848.3,4971.6,4659.2,4948.5z M5352,4628.1c387.9-67.5,700.5-227.7,982.2-507.5c148.6-148.6,378.2-440,358.9-459.3c-3.8-3.9-77.2,36.7-164,88.8c-274,166-563.5,266.3-986.1,341.6c-229.6,42.5-812.4,48.2-1022.7,11.6c-341.6-61.8-708.2-185.3-982.2-333.8c-57.9-30.9-110-52.1-113.9-46.3c-17.4,17.4,123.5,227.7,241.2,357c256.7,279.8,602.1,474.7,970.6,550C4811.6,4664.8,5135.8,4664.8,5352,4628.1z M5407.9,3800.3c266.3-38.6,526.8-102.3,723.6-183.3c277.9-110,565.4-306.8,669.6-459.3c57.9-81,63.7-104.2,63.7-225.8c0-113.9-9.6-156.3-61.8-260.5c-113.8-233.5-351.2-443.8-648.4-578.9c-202.6-90.7-347.3-119.6-563.5-111.9c-173.7,5.8-206.5,13.5-337.7,75.3c-79.1,38.6-185.2,106.1-235.4,150.5c-48.2,42.5-98.4,79.1-110,79.1c-11.6,0-21.2,9.6-21.2,19.3c0,38.6-108.1,17.4-177.5-34.7c-38.6-28.9-110-79.1-156.3-113.9c-349.3-252.8-760.3-179.5-1152,206.5c-177.5,173.7-250.9,308.8-264.4,486.3c-23.1,285.6,125.4,465,555.8,677.3c339.6,166,632.9,254.7,962.9,289.5C4830.9,3835,5214.9,3825.4,5407.9,3800.3z M7034.6,1963.2c150.5-102.3,279.8-191,287.5-196.8c23.2-19.3-140.9-546.1-185.3-594.4c-11.6-13.5-497.9-310.7-1082.6-660L4993-126.7l-5.8,997.7c-1.9,548-1.9,999.6,1.9,1001.5c3.9,3.9,96.5-28.9,208.4-73.3c177.5-71.4,221.9-81,395.6-88.8c154.4-5.8,229.6,0,357,32.8c192.9,48.2,457.3,175.6,644.5,308.8c75.3,52.1,142.8,96.5,150.5,96.5C6754.8,2150.4,6884.1,2067.4,7034.6,1963.2z M3391.4,1992.2c187.2-142.8,538.4-266.3,758.4-266.3c40.5,0,169.8,34.7,291.4,77.2c121.6,42.5,223.8,73.3,227.7,71.4c3.9-3.9,3.9-434.2,1.9-957.1L4665-32.1l-934,598.2l-935.9,596.3l-69.5,210.3c-38.6,113.8-84.9,235.4-100.3,266.3c-61.7,117.7-65.6,113.9,274,306.8l318.4,181.4l48.2-36.7C3292.9,2069.3,3348.9,2025,3391.4,1992.2z M2376.3,1519.4c106.1-210.3,216.1-719.8,250.9-1161.7c42.5-536.5-59.8-1113.4-285.6-1593.9c-83-177.5-102.3-316.5-129.3-887.7c-5.8-148.6-23.1-330-38.6-401.4c-110-536.5-420.7-1018.9-764.2-1181l-69.5-34.7l-239.3,102.2c-131.2,56-312.6,139-405.2,185.3l-169.8,84.9v260.5c0,600.2,117.7,1142.4,445.8,2045.5c65.6,181.4,216.1,605.9,333.8,945.5c225.8,644.5,343.5,907,528.7,1186.8c111.9,167.9,438,521,480.5,521C2328.1,1590.8,2355.1,1558,2376.3,1519.4z M7746.7,1413.2c322.3-333.8,538.4-696.6,808.5-1356.6c596.3-1456.9,910.8-2572.3,903.1-3184c-3.9-248.9-9.6-260.5-152.5-337.7c-212.3-111.9-679.3-308.8-702.4-295.2c-11.6,5.8-77.2,55.9-144.7,110c-304.9,243.1-586.6,731.3-675.4,1169.4c-11.6,57.9-28.9,237.4-40.5,397.5c-28.9,411-67.5,644.5-125.4,758.4C7434.1-960.3,7299-352.4,7299,110.7c0,220,38.6,513.3,96.5,764.2c54,223.8,196.8,658,218.1,658C7623.2,1532.9,7683,1478.9,7746.7,1413.2z M3821.7,145.4l852.9-546.1v-497.9v-497.8l-874.2,521l-876.1,522.9L2934-61c7.7,264.4-11.6,565.4-46.3,744.9l-13.5,67.5l46.3-30.9C2945.6,703.1,3350.8,444.5,3821.7,145.4z M7026.9,535.2c-23.2-162.1-28.9-582.8-11.6-814.3c3.9-61.8-3.9-71.4-102.3-127.4c-285.6-165.9-1908.5-1071-1920.1-1071c-5.8,0-7.7,221.9-5.8,494l5.8,495.9l1022.7,611.7C6579.2,460,7042.4,734,7046.2,730.1C7050.1,726.3,7042.4,639.4,7026.9,535.2z M7067.5-722.9c0-71.4,117.7-428.4,212.3-646.5c156.3-358.9,189.1-297.2-306.8-559.6c-233.5-125.4-430.3-225.8-438-225.8c-7.7,0-65.6,137-127.4,304.9c-113.8,310.7-152.4,372.4-237.4,372.4c-42.5,0-144.7-96.5-144.7-137c0-11.6,44.4-171.7,98.4-358.9c52.1-187.2,90.7-345.4,81.1-353.2c-27-23.1-1219.6-598.2-1240.8-598.2c-13.5,0-17.4,187.2-15.4,551.9l5.8,553.8l1032.4,563.5c567.3,310.7,1044,565.4,1057.5,567.3C7055.9-686.3,7067.5-701.7,7067.5-722.9z M4670.8-2324.6c1.9-299.1-1.9-542.3-7.7-542.3c-11.6,0-822.1,440-908.9,494l-42.4,27l115.8,341.6c61.7,189.1,113.9,366.7,113.9,395.6c0,102.3-119.6,165.9-198.8,108.1c-17.4-13.5-84.9-171.8-146.7-351.2c-63.7-177.5-119.6-328-125.4-333.8c-3.9-3.9-208.4,94.6-453.5,220L2569.3-1738l13.5,67.5c5.8,36.7,27,96.5,46.3,135.1c56,110,144.7,380.2,202.6,611.7l52.1,214.2l891.5-536.5l889.6-538.4L4670.8-2324.6z M3331.5-2463.5c9.6-7.7-40.5-194.9-111.9-416.8c-69.5-220-127.4-416.8-127.4-436.1c0-88.8,131.2-137,239.3-88.8c56,27,73.3,63.7,194.9,467c52.1,166,98.4,302.9,106.1,302.9c7.7,0,243.1-121.5,523-270.2l509.4-268.2l5.8-252.8l5.8-250.9l-814.3,3.9l-814.3,5.8l-104.2,135.1c-127.4,164-279.8,470.9-331.9,665.7c-56,200.7-98.4,501.7-98.4,681.2v148.6l401.4-204.6C3134.7-2355.5,3321.9-2453.9,3331.5-2463.5z M7474.6-2320.7c-27-268.2-83-515.3-173.7-752.6c-63.7-162.1-237.4-459.3-326.1-550l-50.2-54H5954h-970.6v202.6v202.6l677.3,339.6c372.4,185.3,679.2,335.8,683.1,331.9c1.9-3.9,57.9-169.8,125.4-372.5c133.2-407.1,162.1-453.5,287.5-453.5c73.3,0,117.7,32.8,142.8,100.4c5.8,17.3-48.2,216.1-121.6,441.9c-73.3,225.8-131.2,412.9-129.3,414.9c54,42.5,835.6,424.5,841.4,411C7493.9-2069.9,7486.2-2187.6,7474.6-2320.7z"/>
<path d="M149.5-4053.6c-67.5-65.6-65.6-160.1,3.9-225.8c75.3-69.5,916.6-440,999.6-440c34.7,0,79.1,13.5,94.6,30.9c42.5,42.5,40.5,185.3-3.9,225.8c-40.5,36.7-978.4,457.3-1018.9,457.3C209.3-4005.4,174.6-4026.6,149.5-4053.6z"/>
<path d="M9296.3-4204.1c-551.9-248.9-528.8-235.4-561.5-312.6c-44.4-110,15.4-202.6,133.1-202.6c25.1,0,252.8,92.6,505.6,206.5c519.1,235.4,553.8,260.5,515.2,387.9c-19.3,65.6-81.1,119.6-135.1,119.6C9745.9-4005.4,9541.3-4096,9296.3-4204.1z"/>
<path d="M2812.5-4341.1c-63.7-63.7-63.7-152.4,0-216.1l46.3-46.3l2180.6,3.9c2398.6,5.8,2226.9-3.9,2252,123.5c7.7,46.3,0,71.4-36.7,115.8l-48.2,56l-2172.9,5.8l-2174.8,3.8L2812.5-4341.1z"/>
</g>
</g>
</svg>