<?xml version="1.0" encoding="utf-8"?>
<!-- Uploaded to: SVG Repo, www.svgrepo.com, Generator: SVG Repo Mixer Tools -->
<!DOCTYPE svg PUBLIC "-//W3C//DTD SVG 1.1//EN" "http://www.w3.org/Graphics/SVG/1.1/DTD/svg11.dtd">
<svg fill="#000000" width="800px" height="800px" viewBox="0 0 1000 1000" version="1.1" xmlns="http://www.w3.org/2000/svg" xmlns:xlink="http://www.w3.org/1999/xlink"  enable-background="new 0 0 1000 1000" xml:space="preserve">

<g>
<g transform="translate(0.000000,511.000000) scale(0.100000,-0.100000)">
<path d="M6400.2,4883c-367.3-340.4-1115.3-542-1690.9-459.1c-356.1,53.7-792.8,228.4-1115.3,447.9c-73.9,49.3-159,96.3-190.4,103c-69.4,17.9-150.1-22.4-150.1-73.9c-2.2-20.2-58.2-147.8-129.9-284.4l-127.7-246.4l-678.6-239.6c-374-132.1-694.3-250.8-712.2-266.5c-17.9-15.7-31.3-67.2-31.3-125.4c0-80.6,20.2-134.4,98.5-262c181.4-286.7,302.3-620.4,362.8-994.4c44.8-268.8,31.4-913.8-24.6-1166.9c-51.5-230.7-147.8-490.5-237.4-642.8c-145.6-246.4-398.7-459.1-604.7-508.4c-35.8-9-69.4-40.3-85.1-76.1c-17.9-47-24.6-694.3-20.2-2430c6.7-2239.6,9-2369.6,47-2407.6c38.1-38.1,224-40.3,3890.3-40.3c3666.3,0,3852.2,2.2,3890.3,40.3s40.3,168,47,2414.3c2.2,1652.9-2.2,2387.5-17.9,2418.8c-13.4,24.6-80.6,69.4-145.6,103c-340.4,159-589,624.9-694.3,1294.5c-56,356.1-38.1,902.6,40.3,1202.7c73.9,282.2,183.7,530.8,338.2,768.2c145.6,224,161.2,315.8,69.4,400.9c-33.6,31.3-288.9,136.6-620.4,259.8c-311.3,114.2-618.1,226.2-680.8,248.6c-109.8,42.5-125.4,58.2-302.4,324.7c-100.8,154.5-203.8,288.9-224,302.4C6610.7,5035.3,6536.8,5008.4,6400.2,4883z M3914.2,4347.7c318-152.3,707.7-262,1007.8-286.7l67.2-4.5l6.7-340.4l6.7-342.7h-118.7c-300.1,0-748,112-1014.6,253.1c-168,89.6-389.7,306.8-463.6,452.4l-58.2,109.7l91.8,185.9l91.8,183.6l89.6-56C3672.3,4470.9,3804.4,4401.5,3914.2,4347.7z M6731.6,4383.6l103-154.5l-49.3-96.3c-26.9-53.8-114.2-163.5-194.9-244.1c-250.8-250.8-604.7-400.9-1135.5-479.3l-96.3-13.4v344.9v344.9l163.5,26.9c318,53.8,759.3,221.7,989.9,378.5c38.1,26.9,78.4,47,91.8,47C6617.4,4538.1,6675.7,4468.7,6731.6,4383.6z M3096.7,3940.1c29.1-60.5,141.1-192.6,246.4-297.9c147.8-147.8,235.2-212.8,391.9-293.4c329.2-170.2,654-257.6,1045.9-282.2l219.5-13.4l4.5-1283.3c6.7-1444.6-2.2-1363.9,174.7-1363.9c176.9,0,168-80.6,174.7,1366.2l4.5,1287.8h87.3c47,0,170.2,15.7,275.5,33.6c615.9,107.5,1068.3,376.3,1350.5,801.8l80.6,123.2l508.4-192.6c280-105.3,510.6-194.9,515.1-197.1c4.5-2.2-38.1-87.3-94.1-190.4c-232.9-430-324.7-801.8-342.7-1363.9c-13.4-441.2,20.2-750.3,118.7-1092.9C7976.9,567.2,8218.8,182,8467.4,14l114.2-78.4l2.2-2188.1v-2190.4H5000.4H1417v2170.2v2170.2l107.5,62.7c219.5,129.9,459.1,403.1,604.7,692c219.5,443.4,327,1081.7,275.5,1641.7c-44.8,483.8-165.7,920.5-340.4,1234.1c-38.1,64.9-62.7,125.4-53.8,132.1c15.7,15.7,976.5,383,1007.8,385.2C3031.7,4045.4,3065.3,3998.4,3096.7,3940.1z"/>
<path d="M2023.9-1152.8c-71.7-29.1-112-85.1-114.2-154.5c0-76.2,795.1-2058.2,846.6-2109.8c22.4-22.4,76.2-47,120.9-56c67.2-8.9,91.8-2.2,138.9,44.8c31.3,33.6,58.2,85.1,58.2,114.2c0,76.1-797.3,2073.9-846.6,2123.2C2178.4-1141.6,2091.1-1123.7,2023.9-1152.8z"/>
<path d="M7878.4-1150.6c-24.6-9-60.5-35.8-80.6-58.2c-56-67.2-826.4-2015.7-826.4-2091.8c0-78.4,85.1-179.2,150.1-179.2c22.4,0,73.9,17.9,116.5,40.3c71.7,35.8,91.8,80.6,474.8,1034.7c246.4,618.1,398.7,1028,400.9,1077.3C8113.5-1204.3,7983.6-1105.8,7878.4-1150.6z"/>
</g>
</g>
</svg>