<?xml version="1.0" encoding="utf-8"?>
<!-- Uploaded to: SVG Repo, www.svgrepo.com, Generator: SVG Repo Mixer Tools -->
<!DOCTYPE svg PUBLIC "-//W3C//DTD SVG 1.1//EN" "http://www.w3.org/Graphics/SVG/1.1/DTD/svg11.dtd">
<svg fill="#000000" width="800px" height="800px" viewBox="0 0 1000 1000" version="1.1" xmlns="http://www.w3.org/2000/svg" xmlns:xlink="http://www.w3.org/1999/xlink"  enable-background="new 0 0 1000 1000" xml:space="preserve">

<g>
<g transform="translate(0.000000,511.000000) scale(0.100000,-0.100000)">
<path d="M6712.3,4992.5c-21.5-7.8-99.4-54.6-175.4-103.3c-298.3-193-618-331.4-963-419.1c-187.2-46.8-237.8-52.6-575.1-52.6c-323.6,0-393.8,5.8-555.6,46.8c-352.8,87.7-742.7,269-916.2,425l-99.4,89.7l-111.1-25.3c-109.2-23.4-397.7-126.7-1514.7-534.1c-559.5-206.6-653-253.4-653-333.3c0-13.7,29.2-117,66.3-228.1c146.2-436.7,222.2-896.7,239.8-1419.1c23.4-752.5-66.3-1206.7-308-1569.2C1041.6,711.6,872,547.9,756.9,487.4c-97.5-48.7-122.8-97.5-109.2-220.3c5.8-54.6,148.1-1050.7,315.8-2214.5c272.9-1902.6,308-2119,345-2148.2c37-33.1,241.7-35.1,3690.2-35.1c3448.5,0,3653.1,1.9,3692.1,35.1c39,31.2,68.2,216.4,352.8,2226.2C9215.3-662.7,9355.6,351,9355.6,386.1c0,52.6-27.3,87.7-177.4,233.9c-356.8,345-540,695.9-633.5,1206.7c-42.9,237.8-50.7,924-11.7,1167.7c60.4,366.5,226.1,996.1,278.8,1050.7c31.2,33.1,19.5,79.9-35.1,142.3c-46.8,50.7-212.5,122.8-1031.2,442.5c-538,210.5-980.5,382.1-984.4,380.1C6757.1,5010,6735.7,5002.2,6712.3,4992.5z M7737.7,4351.1c389.9-152.1,713.5-280.7,717.4-284.6c3.9-3.9-13.7-76-40.9-159.9c-212.5-645.2-274.9-1495.2-159.9-2126.8c89.7-477.6,321.7-931.8,653-1278.8l150.1-157.9l-308-2076.1c-169.6-1142.3-308-2087.8-310-2099.5c0-19.5-703.7-25.3-3450.4-25.3c-1898.7,0-3450.4,1.9-3452.4,5.8c0,2-134.5,926-298.3,2050.8L942.1,245.7l144.3,134.5c196.9,185.2,319.7,352.8,444.5,606.3c185.2,382.1,261.2,746.6,261.2,1259.3c0,502.9-62.4,1000-187.2,1495.2c-37,144.3-64.3,265.1-62.4,267.1c11.7,7.8,1690.1,614.1,1699.8,614.1c9.7,0,13.6-21.5,50.7-282.7c33.1-232,113.1-555.6,198.8-805.1c187.1-545.8,600.4-1187.2,1095.5-1697.9c274.9-280.7,387.9-372.3,464-372.3c83.8,0,245.6,115,481.5,341.1C5998.8,2253.6,6455,2928.1,6685,3510.9c93.6,235.9,204.7,653,222.2,838.2c31.2,313.9,31.2,311.9,76,294.4C7006.6,4633.8,7345.8,4503.1,7737.7,4351.1z M6616.8,4462.2c-50.7-376.2-183.3-816.8-350.9-1156c-257.3-524.4-723.2-1146.2-1091.7-1460.1l-111.1-95.5l-136.5,134.5c-187.1,183.2-462,504.9-635.5,738.8c-300.2,407.4-473.7,766.1-596.5,1239.8c-64.3,245.6-128.7,553.6-128.7,614.1c0,19.5,54.6,0,177.4-62.4c224.2-111.1,575.1-230,816.8-272.9c276.8-50.7,729.1-46.8,994.2,9.7c292.4,62.4,530.2,144.2,814.8,284.6c136.5,68.2,251.5,124.8,253.4,124.8C6626.5,4563.6,6624.6,4516.8,6616.8,4462.2z"/>
<path d="M1304.7-4506.9c-99.4-50.7-91.6-228.1,11.7-267.1c33.1-13.7,1321.7-17.6,3682.4-15.6c3440.6,5.8,3635.6,7.8,3668.7,40.9c44.8,44.8,44.8,177.4,0,222.2c-33.1,33.1-228.1,35.1-3674.6,39C2109.8-4483.5,1343.7-4487.4,1304.7-4506.9z"/>
</g>
</g>
</svg>