<?xml version="1.0" encoding="utf-8"?>
<!-- Uploaded to: SVG Repo, www.svgrepo.com, Generator: SVG Repo Mixer Tools -->
<!DOCTYPE svg PUBLIC "-//W3C//DTD SVG 1.1//EN" "http://www.w3.org/Graphics/SVG/1.1/DTD/svg11.dtd">
<svg fill="#000000" width="800px" height="800px" viewBox="0 0 1000 1000" version="1.1" xmlns="http://www.w3.org/2000/svg" xmlns:xlink="http://www.w3.org/1999/xlink"  enable-background="new 0 0 1000 1000" xml:space="preserve">

<g>
<g transform="translate(0.000000,512.000000) scale(0.100000,-0.100000)">
<path d="M4771.5,5008.7c-776.1-97.7-1372-588.3-1686.2-1393.1c-224.2-572.9-228-988.7-5.7-1216.8l67.1-69l-44.1-28.7c-24.9-17.3-170.5-103.5-323.8-195.5c-153.3-92-333.4-205-398.6-252.9C2004.5,1586.4,1646.2,865.9,1320.4-280c-297-1042.4-802.9-3293.9-802.9-3573.7c0-134.1,9.6-138,682.2-260.6c335.3-61.3,634.3-113.1,663-113.1c95.8,0,139.9,67.1,266.3,417.7c65.1,182,120.7,327.7,124.6,325.8c1.9-3.8-21.1-252.9-51.7-551.9c-30.7-300.8-53.6-588.3-51.7-641.9l5.7-95.8l2788-3.8c2751.6-5.8,2788.1-5.8,2851.3,32.6c57.5,34.5,61.3,46,61.3,138c0,55.6-26.8,343-57.5,638.1c-30.7,293.2-53.7,538.4-49.8,540.4c3.8,3.8,61.3-149.5,128.4-343c65.1-191.6,136.1-364.1,155.2-383.2c21.1-21.1,63.2-34.5,107.3-34.5c92,0,1241.7,205,1287.7,230c80.5,42.2,78.5,78.6-49.8,624.7c-147.6,643.8-339.2,1508-544.2,2470c-237.6,1109.5-360.3,1533-574.9,1973.7c-206.9,423.5-392.8,632.3-709,793.3c-111.1,57.5-310.4,166.7-446.5,245.3l-243.4,143.7l59.4,69c151.4,170.5,208.9,417.7,162.9,687.9c-107.3,617-425.4,1226.4-806.7,1542.5c-231.9,193.5-517.4,333.4-783.7,389C5302.3,5018.3,4961.2,5031.7,4771.5,5008.7z M5490,4675.3c425.4-116.9,806.7-440.7,1044.3-891l24.9-47.9L6475,3790c-366,228-839.3,341.1-1425.6,341.1c-348.8,0-618.9-34.5-914-118.8c-226.1-63.2-484.8-168.6-595.9-241.5c-72.8-47.9-74.7-47.9-61.3-5.7c7.7,23,42.2,90.1,78.6,149.5c254.8,431.1,680.2,710.9,1205.3,793.3C4888.4,4728.9,5377,4706,5490,4675.3z M5486.2,3849.4c542.3-70.9,906.3-226.1,1149.7-486.7c126.5-136,189.7-277.9,193.6-438.8c1.9-155.2-28.8-224.2-168.7-385.2c-237.6-272.1-613.2-435-960-419.6c-205,9.6-298.9,49.8-459.9,189.7c-141.8,122.6-199.3,126.5-329.6,13.4c-325.8-281.7-806.7-306.6-1241.7-63.2c-630.4,352.6-590.2,948.5,86.2,1318.3c153.3,84.3,377.5,172.5,536.5,214.6C4625.9,3878.2,5093.4,3901.2,5486.2,3849.4z M3472.3,2019.5c208.9-130.3,561.4-229.9,801-229.9c141.8,0,366,49.8,517.4,111.1l134.1,57.5v-3217.3v-3217.3H3679.3H2431.8l9.6,63.2c5.8,32.6,76.6,720.5,157.1,1527.2c141.8,1444.8,145.6,1467.8,201.2,1584.7c134.1,279.8,222.3,590.2,277.8,963.8c24.9,172.5,28.7,300.8,21.1,584.4c-11.5,438.8-57.5,684.1-214.6,1157.4c-59.4,172.5-103.5,316.2-101.6,318.1c30.7,26.8,565.3,354.5,576.8,354.5C3370.8,2077,3420.6,2050.1,3472.3,2019.5z M6952.1,1860.4c214.6-134.1,272.1-178.2,260.6-203.1c-197.4-452.2-295.1-902.5-308.5-1431.4c-17.2-605.5,63.2-1029,300.8-1588.5c55.6-130.3,61.3-174.4,201.2-1552.1c78.6-779.9,147.5-1450.6,153.3-1488.9l9.6-72.8H6400.2H5231.4v3201.9c0,3042.9,1.9,3202,34.5,3188.5c229.9-97.7,218.5-93.9,482.9-95.8c293.2,0,435,32.6,728.1,161c90.1,40.2,172.5,67.1,182,63.2C6670.4,2036.7,6800.7,1956.2,6952.1,1860.4z M2543,1410.1c143.7-366,214.6-718.6,229.9-1144c17.2-523.1-69-975.3-270.2-1423.7l-88.1-195.5l-30.7-396.7l-32.6-398.6l-304.7-871.9c-168.6-479-306.6-871.9-308.5-873.8c-1.9-1.9-201.2,30.7-444.6,70.9c-241.4,40.3-448.4,74.7-458,74.7c-74.7,1.9,312.3,1759.1,680.2,3094.6c201.2,726.2,410.1,1303,622.8,1715c118.8,229.9,297,498.2,329.6,498.2C2477.8,1559.6,2512.3,1492.5,2543,1410.1z M7638.1,1479.1c180.1-166.7,379.4-525,525-944.7c115-333.4,191.6-638.1,364.1-1452.5c168.6-799.1,390.9-1801.2,538.4-2416.3c51.7-220.4,92-404.3,88.2-406.2c-15.3-15.3-906.3-155.2-917.9-145.6c-5.7,7.7-147.5,396.7-312.3,866.1l-298.9,852.7l-34.5,383.2c-34.5,367.9-38.3,389-101.5,517.4C7228-751.3,7126.5,9.4,7235.7,636c55.6,325.8,249.1,923.6,298.9,923.6C7542.3,1559.6,7590.2,1523.2,7638.1,1479.1z"/>
<path d="M3338.2-1895.3c-30.7-34.5-620.9-1774.4-630.4-1856.8c-7.7-63.2-3.8-74.7,38.3-93.9c61.3-26.8,170.5-7.7,210.8,36.4c17.3,19.2,164.8,429.2,329.6,914c268.3,793.3,295.1,885.3,275.9,935.1c-11.5,28.8-38.3,61.3-57.5,70.9C3457-1862.7,3361.2-1866.5,3338.2-1895.3z"/>
<path d="M6461.6-1914.5c-23-24.9-42.2-57.5-42.2-74.7c0-61.3,597.9-1789.7,630.4-1822.3c55.6-55.6,174.4-63.2,228-13.4c23,21.1,42.2,59.4,42.2,84.3c0,38.3-103.5,348.7-471.4,1423.7c-116.9,337.2-132.2,373.7-189.7,408.1C6576.5-1858.9,6511.4-1860.8,6461.6-1914.5z"/>
</g>
</g>
</svg>