<?xml version="1.0" encoding="utf-8"?>
<!-- Uploaded to: SVG Repo, www.svgrepo.com, Generator: SVG Repo Mixer Tools -->
<!DOCTYPE svg PUBLIC "-//W3C//DTD SVG 1.1//EN" "http://www.w3.org/Graphics/SVG/1.1/DTD/svg11.dtd">
<svg fill="#000000" width="800px" height="800px" viewBox="0 0 1000 1000" version="1.1" xmlns="http://www.w3.org/2000/svg" xmlns:xlink="http://www.w3.org/1999/xlink"  enable-background="new 0 0 1000 1000" xml:space="preserve">

<g>
<g transform="translate(0.000000,511.000000) scale(0.100000,-0.100000)">
<path d="M6710.6,4986.8c-21.3-11.6-40.6-23.2-44.5-25.1c-3.9-3.9-27.1-90.8-54.1-195.2c-71.5-284.1-154.6-512.2-280.3-779c-146.9-309.3-288-520-465.9-690.1c-235.8-228.1-436.8-318.9-701.6-318.9c-195.2,0-340.2,38.7-537.4,141.1c-434.9,226.1-852.4,850.5-1067,1594.7c-52.2,179.8-119.8,276.4-193.3,276.4c-67.7,0-920.1-344.1-972.3-390.5c-81.2-77.3-87-102.4-34.8-204.9c71.5-141.1,177.8-458.1,220.4-663c191.4-885.3,29-1579.2-492.9-2103c-79.2-79.3-150.8-158.5-162.4-177.8c-9.7-21.3-17.4-1206.2-17.4-3090.8v-3056l48.3-46.4l46.4-48.3h2998h2998l46.4,48.3l48.3,46.4v3114v3114L7940,1693.1c-243.6,255.1-371.1,477.4-469.7,817.6c-38.7,133.4-44.5,193.3-44.5,527.7c0,537.3,63.8,806,303.5,1289.3c127.6,257.1,133.4,276.4,108.2,326.7c-13.5,29-38.7,59.9-54.1,67.7c-52.2,27.1-954.9,288-995.5,288C6766.7,5010,6731.9,4998.4,6710.6,4986.8z M7164.9,4563.5c133.4-32.9,249.4-67.7,257.1-75.4c9.7-7.7-7.7-69.6-36.7-137.2c-85.1-204.9-179.8-498.7-222.3-693.9c-50.3-235.8-69.6-701.7-38.7-933.6c61.8-458.1,278.3-924,562.5-1202.3l96.6-94.7v-2953.5v-2953.5H5000H2216.6v2907.1v2907.1l127.6,141.1c141.1,158.5,303.5,392.4,390.4,568.3c237.8,481.3,293.8,1086.3,156.6,1724.2c-38.7,175.9-146.9,521.9-191.4,603.1c-11.6,25.1-17.4,48.3-11.6,54.1c13.5,15.5,481.3,179.8,508.4,179.8c11.6,0,29-29,34.8-61.9c23.2-104.4,172-477.4,266.7-663c203-405.9,514.2-784.8,798.3-974.2c297.7-201,680.4-301.5,976.1-257.1c288,40.6,523.8,166.2,759.6,400.1c315.1,311.2,583.7,800.2,755.8,1372.4c29,96.6,56.1,185.6,59.9,199.1c3.9,13.5,23.2,21.3,40.6,15.5C6907.8,4631.1,7031.5,4598.3,7164.9,4563.5z"/>
</g>
</g>
</svg>