<?xml version="1.0" encoding="utf-8"?>
<!-- Uploaded to: SVG Repo, www.svgrepo.com, Generator: SVG Repo Mixer Tools -->
<!DOCTYPE svg PUBLIC "-//W3C//DTD SVG 1.1//EN" "http://www.w3.org/Graphics/SVG/1.1/DTD/svg11.dtd">
<svg fill="#000000" width="800px" height="800px" viewBox="0 0 1000 1000" version="1.1" xmlns="http://www.w3.org/2000/svg" xmlns:xlink="http://www.w3.org/1999/xlink"  enable-background="new 0 0 1000 1000" xml:space="preserve">

<g>
<g transform="translate(0.000000,511.000000) scale(0.100000,-0.100000)">
<path d="M3819,4515.2c-24.9-17.2-155.2-195.4-289.3-396.6l-245.2-367.8l-132.2-46c-72.8-24.9-277.8-101.5-457.9-168.6l-325.7-122.6l-159-166.7C1644.6,2660.7,1274.9,1702.9,817-358.5C537.3-1619.1,232.7-3312.7,261.4-3442.9c5.7-30.6,26.8-67.1,44.1-82.4c42.1-38.3,1354.5-383.2,1400.4-367.8c19.2,5.7,49.8,24.9,65.1,44.1c17.2,19.2,99.6,283.5,183.9,586.3c86.2,304.6,159,559.4,166.7,565.1c5.7,5.8,5.7-97.7,0-228c-5.8-132.2-15.3-408.1-21.1-615c-11.5-342.9-9.6-377.4,23-415.7l34.5-42.1l2829.6,3.8l2827.7,5.7l51.7,47.9l49.8,46l-11.5,404.2c-5.7,220.3-13.4,532.6-19.2,689.7c-5.7,187.7-1.9,274,9.6,249.1c9.6-21.1,88.1-304.6,172.4-632.2c86.2-327.6,168.6-613,183.9-637.9c63.2-95.8,70.9-95.8,775.9,90c772.1,203.1,758.7,195.4,739.5,394.6c-15.3,151.4-233.7,1344.9-379.3,2069.1C9095.1,195.1,8803.9,1354.2,8574,1974.9c-178.2,482.8-446.4,933-728,1224.2c-189.7,195.4-97.7,145.6-869.8,465.5l-239.5,97.7l-266.3,365.9c-279.7,381.2-318,415.7-423.4,385.1c-49.8-15.3-65.2-40.2-137.9-216.5c-241.4-586.2-582.4-938.7-906.2-938.7c-333.3,0-728,431.1-919.6,1002c-24.9,72.8-61.3,141.8-84.3,157.1C3947.4,4553.5,3872.7,4553.5,3819,4515.2z M6322.9,3829.4l157.1-226.1l-32.5-99.6c-122.6-369.8-344.8-693.5-551.8-800.8c-105.4-55.6-296.9-59.4-402.3-7.7c-101.6,49.8-193.5,145.6-251,260.5c-53.7,107.3-59.4,134.1-23,134.1c13.4,0,86.2,30.7,164.8,67.1c247.1,118.8,471.3,373.6,661,754.8c49.8,97.7,97.7,172.4,107.3,162.8C6160.1,4065,6236.7,3955.8,6322.9,3829.4z M3941.6,3929c185.8-367.8,467.4-683.9,722.2-810.4c80.5-40.2,147.5-84.3,147.5-99.6c0-51.7-93.9-210.7-160.9-268.2c-193.5-172.4-484.7-116.9-729.9,137.9c-128.4,132.2-264.4,352.5-342.9,551.7l-51.7,128.4l168.6,249.1c92,136,170.5,247.1,172.4,249.1C3870.7,4066.9,3903.3,4003.7,3941.6,3929z M7029.9,3298.7c264.4-105.4,293.1-122.6,285.4-159c-5.7-23-36.4-139.9-69-260.5c-113-419.6-143.7-655.2-143.7-1101.6c-1.9-342.9,5.8-434.9,42.1-618.8c51.7-258.6,134.1-500,235.6-693.5l76.6-143.7l74.7-1934.9c42.1-1063.3,76.6-1967.5,76.6-2005.8v-72.8H4983.8H2357.3l11.5,187.7c5.7,101.5,36.4,871.7,67.1,1708.9c30.7,837.2,63.2,1657.1,69,1820l13.4,296.9l82.4,153.3c103.4,189.7,224.1,555.6,266.3,795c44.1,256.7,57.5,722.3,30.7,1063.3c-26.8,327.6-61.3,515.3-128.4,708.8c-26.8,74.7-49.8,141.8-51.7,151.3c-1.9,9.6,124.5,57.5,279.7,107.3l285.5,92l84.3-183.9c281.6-603.5,678.2-910,1113.1-856.4c183.9,23,406.1,168.6,500,327.6c23,36.4,23,36.4,44.1,0c136-228,480.9-369.8,770.1-316.1c364,65.1,641.8,354.4,858.3,894.7c34.5,86.2,67.1,157.1,72.8,157.1C6732.9,3415.6,6868.9,3361.9,7029.9,3298.7z M2464.6,2911.7c120.7-417.6,155.2-1118.8,74.7-1580.5c-53.6-308.4-185.8-664.8-312.3-841c-36.4-49.8-40.2-111.1-69-944.5l-30.6-890.8l-289.3-1101.6c-159-605.4-293.1-1107.3-300.8-1113.1c-9.6-9.6-948.3,243.3-977.1,262.5c-9.6,7.7,170.5,1000,316.1,1741.5c467.4,2373.6,808.4,3525,1239.5,4182.1c118.8,182,277.8,383.2,304.6,385.1C2428.2,3013.2,2447.3,2967.3,2464.6,2911.7z M7796.2,2775.7c398.5-595.8,632.2-1224.2,950.2-2569.1c208.8-877.4,553.7-2595.9,691.6-3452.2l13.4-80.5l-132.2-38.3c-367.8-107.3-850.6-237.5-854.4-229.9c-3.8,3.8-143.7,538.3-310.4,1185.9l-300.8,1178.2l-19.2,848.7l-19.2,848.7l-65.1,99.6c-122.6,185.8-233.7,530.7-277.8,865.9c-26.8,212.7-13.4,720.3,28.7,948.3c51.7,283.5,132.2,611.1,147.5,601.6C7658.2,2976.8,7723.4,2884.9,7796.2,2775.7z"/>
<path d="M4686.9,1777.6c-30.6-28.7-47.9-69-47.9-105.4s17.3-76.6,47.9-105.4c46-47.9,49.8-47.9,390.8-47.9c377.4,0,429.2,11.5,459.8,97.7c24.9,74.7-5.7,159-67.1,187.7c-30.6,13.4-176.3,21.1-392.7,21.1C4736.7,1825.5,4732.8,1825.5,4686.9,1777.6z"/>
<path d="M4686.9,244.9c-30.6-28.7-47.9-69-47.9-105.4s17.3-76.6,47.9-105.4c46-47.9,49.8-47.9,390.8-47.9c216.5,0,362.1,7.6,392.7,21.1c61.3,28.7,92,113,67.1,187.7c-30.6,86.2-82.4,97.7-459.8,97.7C4736.7,292.8,4732.8,292.8,4686.9,244.9z"/>
<path d="M4686.9-981.2c-30.6-28.7-47.9-69-47.9-105.4c0-36.4,17.3-76.6,47.9-105.4c46-47.9,49.8-47.9,390.8-47.9c377.4,0,429.2,11.5,459.8,97.7c24.9,74.7-5.7,159-67.1,187.7c-30.6,13.4-176.3,21.1-392.7,21.1C4736.7-933.3,4732.8-933.3,4686.9-981.2z"/>
<path d="M4686.9-2207.3c-30.6-28.7-47.9-69-47.9-105.4c0-36.4,17.3-76.6,47.9-105.4c46-47.9,49.8-47.9,390.8-47.9c377.4,0,429.2,11.5,459.8,97.7c24.9,74.7-5.7,159-67.1,187.7c-30.6,13.4-176.3,21.1-392.7,21.1C4736.7-2159.4,4732.8-2159.4,4686.9-2207.3z"/>
<path d="M156-3787.8c-74.7-74.7-74.7-178.2,0-231.8c47.9-34.5,1222.3-304.6,1323.8-304.6c51.7,0,151.3,82.4,151.3,126.4c0,49.8-38.3,120.7-76.6,141.8c-40.2,21.1-1275.9,306.5-1329.5,306.5C207.8-3749.5,177.1-3766.7,156-3787.8z"/>
<path d="M9108.5-3893.1c-339.1-78.5-636.1-151.4-657.1-162.8c-38.3-21.1-76.6-92-76.6-141.8c0-42.1,97.7-126.4,145.6-126.4c23,0,321.9,61.3,662.9,136c657.1,143.7,687.8,155.2,714.6,268.2c15.3,61.3-51.7,145.6-124.5,159C9746.4-3755.2,9447.6-3816.5,9108.5-3893.1z"/>
</g>
</g>
</svg>