<?xml version="1.0" encoding="utf-8"?>
<!-- Uploaded to: SVG Repo, www.svgrepo.com, Generator: SVG Repo Mixer Tools -->
<!DOCTYPE svg PUBLIC "-//W3C//DTD SVG 1.1//EN" "http://www.w3.org/Graphics/SVG/1.1/DTD/svg11.dtd">
<svg fill="#000000" width="800px" height="800px" viewBox="0 0 1000 1000" version="1.1" xmlns="http://www.w3.org/2000/svg" xmlns:xlink="http://www.w3.org/1999/xlink"  enable-background="new 0 0 1000 1000" xml:space="preserve">

<g>
<g transform="translate(0.000000,511.000000) scale(0.100000,-0.100000)">
<path d="M2714.7,3613.7c-313.4-125-601.1-246-638.8-267.8c-37.7-23.8-117-95.2-176.6-158.7c-323.4-351.1-599.1-974.1-823.3-1856.8C822.1,332.5,100-3030,100-3210.6c0-127,33.7-140.8,738-289.6c615-130.9,642.8-134.9,688.4-103.2c35.7,25.8,136.9,277.7,450.3,1124.8c222.2,601.1,412.6,1110.9,422.5,1132.7l19.8,43.6l184.5-37.7c861-178.5,1983.8-263.9,2886.4-220.2c688.4,33.7,1410.5,121,1880.6,232.1c65.5,13.9,121,23.8,125,19.8c4-4,194.4-509.8,422.5-1124.8c283.7-765.7,426.5-1128.8,456.3-1150.6c23.8-19.8,71.4-35.7,105.2-35.7c33.7,0,339.2,57.5,676.5,128.9l615,128.9l63.5,73.4c37.7,45.6,65.5,97.2,65.5,128.9c0,144.8-724.1,3511.3-964.1,4477.5C8779.1,1951.3,8580.8,2475,8360.6,2844c-121,202.4-357.1,468.2-468.2,523.7c-107.1,55.5-1142.7,472.1-1172.4,472.1c-15.9,0-89.3-41.7-164.6-91.3c-180.5-121-571.3-309.5-773.7-373c-287.6-89.3-490-119-801.5-117c-315.4,0-484,27.8-781.6,127c-224.2,75.4-521.7,228.1-686.4,355.1c-75.4,57.5-148.8,97.2-178.5,97.2C3305.8,3837.9,3028.1,3736.7,2714.7,3613.7z M3555.8,3226.9c787.6-759.8,1366.8-1549.4,1493.8-2035.4c123-472.1-130.9-970.1-704.2-1380.7c-210.3-150.8-686.4-384.9-1001.8-494c-285.7-99.2-751.9-222.2-759.8-200.4c-2,7.9,39.7,327.3,93.2,708.2c178.5,1243.8,242,1989.8,202.3,2368.7c-35.7,339.2-140.8,688.4-267.8,890.7c-27.8,43.7-53.6,89.3-55.6,101.2c-5.9,19.8,654.7,293.6,712.2,297.6C3280,3482.8,3411,3367.7,3555.8,3226.9z M7108.8,3357.8c176.6-69.4,337.3-130.9,355.1-138.9c31.7-11.9,29.8-23.8-25.8-117.1c-341.2-573.3-376.9-1311.3-146.8-2942c37.7-261.9,91.3-599.1,119-747.9c27.8-150.8,49.6-281.7,49.6-291.6c0-39.7-708.2,176.6-1071.3,329.3c-436.4,182.5-751.9,380.9-1007.8,636.8c-132.9,132.9-164.7,174.6-154.7,208.3c5.9,23.8,43.6,136.9,85.3,251.9c69.4,194.4,73.4,224.2,75.4,436.4c0,234.1-13.9,295.6-150.8,630.8c-23.8,55.6-21.8,71.4,7.9,128.9c61.5,111.1,283.7,412.6,494,668.5c204.3,246,997.9,1071.3,1031.6,1071.3C6777.5,3482.8,6930.2,3427.2,7108.8,3357.8z M2347.6,2943.2c95.2-158.7,180.5-430.5,212.3-666.6c55.5-410.7-31.7-1412.5-250-2840.8l-71.4-466.2l-414.6-1099c-228.1-605.1-418.6-1103-422.5-1107c-6-7.9-904.6,170.6-918.5,182.5c-4,2,29.8,154.7,73.4,339.2c41.7,184.5,166.6,799.5,277.7,1366.8c551.5,2821,734,3493.5,1105,4074.7c79.4,123,277.7,339.2,313.4,339.2C2264.3,3066.2,2308,3010.7,2347.6,2943.2z M5779.6,3000.7c-394.8-468.2-634.8-771.7-759.8-964.1c-29.8-43.7-31.7-41.7-182.5,170.6c-202.3,281.7-376.9,497.9-549.5,678.5c-77.4,81.3-140.9,148.8-140.9,150.8s91.3-17.9,204.3-45.6c281.7-69.4,767.7-73.4,1107-7.9c127,23.8,251.9,51.6,277.7,61.5C5825.3,3080.1,5837.2,3068.2,5779.6,3000.7z M7898.3,2972.9c255.9-289.6,488-759.8,660.6-1345c130.9-444.4,575.3-2376.6,783.6-3412.1c111.1-555.5,226.1-1220,212.3-1233.9c-13.9-13.9-908.6-226.1-918.5-218.2c-4,5.9-194.4,503.9-420.6,1107l-414.6,1099l-81.3,495.9c-192.4,1180.4-248,1706.1-249.9,2340.9c0,466.2,4,531.7,43.6,684.4c65.5,259.9,218.2,575.3,275.7,575.3C7803.1,3066.2,7850.7,3024.5,7898.3,2972.9z M5073.4-60.3c17.9-27.8,103.2-113.1,188.5-186.5c367-317.4,872.9-589.2,1406.5-755.8c113.1-35.7,214.3-69.4,222.2-77.4c19.8-15.9-369-69.4-825.3-113.1c-422.6-37.7-1565.2-43.7-1967.9-7.9c-325.3,27.8-948.3,101.2-960.2,113.1c-4,4,4,11.9,19.8,15.9c547.5,190.4,1055.4,422.5,1323.2,601.1c184.5,125,412.6,315.4,476.1,396.8C5015.9,5.2,5029.8,7.2,5073.4-60.3z"/>
</g>
</g>
</svg>