<?xml version="1.0" encoding="utf-8"?>
<!-- Uploaded to: SVG Repo, www.svgrepo.com, Generator: SVG Repo Mixer Tools -->
<!DOCTYPE svg PUBLIC "-//W3C//DTD SVG 1.1//EN" "http://www.w3.org/Graphics/SVG/1.1/DTD/svg11.dtd">
<svg fill="#000000" width="800px" height="800px" viewBox="0 0 1000 1000" version="1.1" xmlns="http://www.w3.org/2000/svg" xmlns:xlink="http://www.w3.org/1999/xlink"  enable-background="new 0 0 1000 1000" xml:space="preserve">

<g>
<g transform="translate(0.000000,511.000000) scale(0.100000,-0.100000)">
<path d="M3626.3,4160.6c-929-191.7-1834.6-623.9-2448.7-1169.6C506.8,2394.4,101.9,1555.4,100,755.5c0-293.4,29.3-465.5,127.1-739.3c135-385.3,318.8-661.1,682.6-1026.8l269.9-271.9l-41.1-266c-78.2-518.3-50.8-1197,64.5-1639c152.6-584.8,490.9-837.1,1073.7-801.9c643.5,41.1,1416,369.6,1951.9,831.2l150.6,131l88-27.4c131-39.1,831.2-21.5,981.8,25.4l109.5,33.3l154.5-127.1c418.5-346.2,1052.2-657.2,1584.2-778.4c250.3-56.7,645.4-70.4,807.8-29.3c438.1,111.5,635.6,397,756.9,1097.2c46.9,277.7,46.9,1026.8,0,1345.6c-19.6,125.2-39.1,240.6-45,254.3c-3.9,13.7,19.6,41.1,52.8,60.6c111.5,66.5,459.6,420.5,584.8,592.6c483.1,680.6,571.1,1398.4,273.8,2245.3c-428.3,1214.6-1674.2,2124-3414.9,2493.7c-295.3,62.6-316.8,58.7-379.4-43c-33.3-54.8-33.3-66.5-9.8-113.4c43-84.1,72.4-97.8,318.8-146.7c449.8-91.9,911.4-250.3,1353.4-461.6c1075.7-518.3,1703.5-1224.3,1940.2-2178.8c58.7-236.7,62.6-655.2,7.8-870.3C9443-66,9220-437.6,8860.1-797.5l-134.9-134.9L8652.8-729c-101.7,285.6-178,426.4-301.2,559.4c-316.8,342.3-792.1,363.8-1412.1,62.6C6626.6-259.6,6069.2-635.1,5678-957.9l-148.6-123.2l-144.7,50.9c-121.3,45-185.8,54.8-400.9,60.6c-217.1,5.9-279.7,2-414.6-35.2l-160.4-43l-90,74.3C3749.6-498.2,3024-58.2,2628.9,51.4c-217.1,60.6-506.6,64.5-665,11.7C1801.6,8.3,1656.8-97.3,1559-230.3c-111.5-150.6-138.9-207.3-230.8-461.6c-41.1-113.4-80.2-211.2-88-221c-21.5-23.5-354,332.5-467.4,502.6C366,192.2,281.9,837.6,520.5,1514.3c269.9,766.7,889.9,1410.1,1783.7,1850.2c485,240.6,1064,432.3,1556.8,520.3c160.4,29.3,195.6,58.7,195.6,168.2c0,66.5-9.8,91.9-50.9,123.2C3941.2,4227.1,3949.1,4227.1,3626.3,4160.6z M2642.6-251.8c395.1-133,858.6-422.5,1341.7-837.1l133-115.4l-80.2-88c-113.4-121.3-179.9-275.8-191.7-440.1l-9.8-133h-917.3h-917.3l-46.9-48.9c-31.3-29.3-48.9-70.4-48.9-107.6c0-37.2,17.6-78.2,48.9-107.6l46.9-48.9h917.3h919.2l7.8-181.9c7.8-213.2,60.6-340.3,193.6-485l80.2-86.1l-105.6-93.9c-215.1-195.6-635.6-422.5-1020.9-549.6c-291.4-97.8-500.7-136.9-745.2-136.9c-492.9-3.9-647.4,142.8-774.5,731.5c-41.1,183.8-45,260.1-45,704.1c-2,524.2,19.6,737.4,109.5,1124.6c133,575,322.7,880.1,592.6,950.5C2231.9-173.6,2482.2-199,2642.6-251.8z M8001.5-238.1c95.8-50.9,224.9-187.8,285.5-311c76.3-148.6,187.8-522.2,238.6-798c148.6-813.6,101.7-1660.5-111.5-2067.3c-109.5-205.4-246.4-269.9-578.9-269.9c-549.6,0-1279.1,279.7-1817,698.2c-90,68.5-162.3,133-162.3,142.8c0,7.8,29.3,60.6,66.5,115.4c76.3,111.5,109.5,240.6,109.5,422.5v127.1h970.1c1109,0,1081.6-3.9,1083.5,160.4c0,54.8-11.7,82.1-50.8,111.5c-50.9,41.1-70.4,41.1-1026.8,41.1h-976v93.9c0,138.9-48.9,281.7-138.9,399l-78.2,103.7l109.5,101.7c432.2,406.8,1200.9,864.5,1601.8,956.4C7682.7-175.5,7901.8-187.2,8001.5-238.1z M5253.6-1278.6c154.5-46.9,316.8-158.4,397-269.9l58.7-86.1l5.9-412.7c5.9-479.2,0-506.6-162.3-616.1c-160.4-107.6-269.9-131-635.6-131c-356,1.9-453.8,23.5-620,144.7c-133,95.8-142.8,138.9-142.8,586.7c0,449.8,7.8,479.2,162.3,622c168.2,154.5,297.3,197.5,592.6,199.5C5075.6-1239.5,5159.7-1249.3,5253.6-1278.6z"/>
</g>
</g>
</svg>