<?xml version="1.0" encoding="utf-8"?>
<!-- Uploaded to: SVG Repo, www.svgrepo.com, Generator: SVG Repo Mixer Tools -->
<!DOCTYPE svg PUBLIC "-//W3C//DTD SVG 1.1//EN" "http://www.w3.org/Graphics/SVG/1.1/DTD/svg11.dtd">
<svg fill="#000000" width="800px" height="800px" viewBox="0 0 1000 1000" version="1.1" xmlns="http://www.w3.org/2000/svg" xmlns:xlink="http://www.w3.org/1999/xlink"  enable-background="new 0 0 1000 1000" xml:space="preserve">

<g>
<g transform="translate(0.000000,511.000000) scale(0.100000,-0.100000)">
<path d="M3621.6,4633l-386-384.1l-836.4-193c-618-142.3-840.3-200.8-859.8-226.2c-50.7-72.1-48.7-120.9,13.6-216.4c224.2-350.9,341.2-891,296.3-1374.5c-66.3-709.7-358.7-1193.2-807.1-1341.3c-74.1-23.4-140.4-58.5-152.1-78c-25.3-48.7-56.5-937.8-56.5-1665c0-1006,46.8-1633.8,148.2-2017.9c128.7-491.3,423.1-933.9,807.1-1216.6l120.9-89.7l3113.6,3.9l3113.5,5.8l156,76c117,58.5,191.1,113.1,311.9,234c183.3,185.2,296.3,362.6,388,621.9c152.1,425,175.5,760.4,173.5,2598.9c0,1316-2,1429.1-33.1,1475.8c-17.6,29.2-58.5,58.5-87.7,64.4c-232,54.6-538.1,327.5-670.7,596.6c-280.7,571.2-241.7,1277,117,2156.3l42.9,101.4l-64.3,72.1c-64.3,70.2-66.3,70.2-892.9,272.9l-826.7,202.8l-195,189.1c-547.8,534.2-526.4,516.7-618,503c-44.8-7.8-91.6-21.5-105.3-33.1c-11.7-9.8-33.2-87.7-44.9-173.5c-58.5-388-230-678.5-479.6-799.3c-83.8-40.9-124.8-48.7-292.4-48.7c-173.5,0-206.7,5.8-304.1,54.6c-251.5,122.8-444.5,432.8-503,811.1c-23.4,142.3-42.9,171.6-134.5,189.1C4011.5,5019.1,3997.8,5007.4,3621.6,4633z M4112.9,4161.2c81.9-136.5,239.8-300.2,358.7-368.5c52.6-31.2,159.9-74.1,239.8-97.5l148.2-42.9v-415.3v-417.2l-78,5.8c-189.1,13.7-419.2,83.9-592.7,183.3c-136.5,79.9-356.8,286.6-456.2,432.8c-95.5,142.3-216.4,395.8-253.5,538.1l-27.3,107.2l234,237.9l234,237.9l64.3-148.2C4019.3,4334.7,4077.8,4219.7,4112.9,4161.2z M6366.6,4262.6c76-74.1,140.4-152.1,140.4-171.6c0-89.7-68.2-292.4-159.9-481.6c-87.7-177.4-124.8-228.1-278.8-382.1c-239.8-241.8-438.7-339.2-832.5-405.5l-74.1-13.7v425v427l136.5,33.1c146.2,39,321.7,142.3,421.1,249.6c118.9,126.7,243.7,362.6,310,581C6044.9,4574.5,6033.3,4584.3,6366.6,4262.6z M7881.5,3699.2c204.7-52.6,234-66.3,230-99.4c-1.9-21.4-39-140.4-81.9-263.2c-107.2-311.9-157.9-567.3-171.6-877.3c-33.2-775.9,218.4-1386.2,698-1696.2c66.3-42.9,154-87.7,195-99.4l72.1-23.4l13.7-360.7c19.5-487.4-1.9-2390.2-29.2-2694.4c-56.6-610.2-193-982.6-458.2-1238c-58.5-54.6-152.1-122.8-212.5-152.1c-93.6-46.8-128.7-52.6-302.2-52.6c-109.2,0-196.9,5.8-196.9,15.6c0,7.8,105.3,419.2,232,914.4c134.5,520.6,228.1,920.2,222.2,945.6c-17.5,68.2-42.9,91.6-130.6,115c-360.7,99.4-569.3,185.2-772.1,319.7c-360.7,239.8-594.6,657-616.1,1101.5c-11.7,226.2-19.5,261.3-58.5,300.3c-25.4,27.3-115,31.2-672.6,31.2h-641.4v1294.6v1296.5l93.6,11.7c744.8,101.4,1273.1,586.9,1495.4,1378.4l31.2,109.2l413.3-107.2C7462.3,3808.3,7752.8,3732.3,7881.5,3699.2z M3231.6,3784.9c274.9-756.5,772.1-1191.2,1472-1288.7l165.7-23.4V1178.3V-114.3h-701.9h-703.8l-46.8-48.7c-44.8-42.9-48.7-60.4-48.7-245.6c0-232-33.1-380.2-130.6-573.2c-89.7-179.4-175.5-294.4-317.8-427C2713-1598,2383.5-1763.7,2056-1841.7c-157.9-37.1-200.8-64.3-214.5-140.4c-5.9-33.1,79.9-380.2,232-930c132.6-481.6,247.6-892.9,253.4-910.5c9.8-31.2-5.9-35.1-154-35.1c-148.2,0-169.6,5.8-239.8,54.6c-120.9,89.7-325.6,317.8-423.1,473.8c-173.5,280.8-261.3,571.2-317.8,1060.6c-35.1,302.2-58.5,1865.8-37,2472.1l13.7,395.8l142.3,72.1c157.9,81.9,358.7,255.4,466,401.6c350.9,477.7,485.5,1312.1,315.8,1973c-25.4,101.4-81.9,271-124.8,378.2c-42.9,107.2-74.1,198.9-70.2,202.8c13.6,13.7,1224.4,310,1253.6,308C3165.3,3933.1,3200.4,3864.9,3231.6,3784.9z M4888.8-2141.9v-1715.7H3763.9H2637l-216.4,855.9l-218.3,857.8l140.4,40.9c300.2,91.6,543.9,218.4,752.6,391.9c290.5,241.7,534.2,699.9,588.8,1115.2l23.4,169.6h590.7h590.7V-2141.9z M6300.4-564.7c33.1-323.7,144.3-598.5,364.6-892.9c212.5-286.6,557.6-514.7,959.2-635.6c138.4-40.9,169.6-58.5,161.8-83.8c-5.8-17.5-99.4-356.8-206.7-754.5c-109.2-395.8-210.5-768.2-226.1-824.7l-29.2-101.4H6261.4H5200.8v1715.7v1715.7h544h542L6300.4-564.7z"/>
<path d="M2003.4-4506.8c-99.4-50.7-91.6-228.1,11.7-267.1c33.1-13.6,1050.8-17.5,2905-15.6c2694.4,5.8,2854.3,7.8,2887.4,40.9c44.8,44.8,44.8,177.4,0,222.3c-33.1,33.2-193,35.1-2895.2,39C2650.6-4483.4,2042.4-4487.3,2003.4-4506.8z"/>
</g>
</g>
</svg>