<?xml version="1.0" encoding="utf-8"?>
<!-- Uploaded to: SVG Repo, www.svgrepo.com, Generator: SVG Repo Mixer Tools -->
<!DOCTYPE svg PUBLIC "-//W3C//DTD SVG 1.1//EN" "http://www.w3.org/Graphics/SVG/1.1/DTD/svg11.dtd">
<svg fill="#000000" width="800px" height="800px" viewBox="0 0 1000 1000" version="1.1" xmlns="http://www.w3.org/2000/svg" xmlns:xlink="http://www.w3.org/1999/xlink"  enable-background="new 0 0 1000 1000" xml:space="preserve">

<g>
<g transform="translate(0.000000,511.000000) scale(0.100000,-0.100000)">
<path d="M3289.2,4452.4c-427.4-90-797.5-245.4-1069.4-449.9c-194.3-145.2-482.6-458-635.9-687.1C931.5,2334,354.9,195.2,130-2086.8c-40.9-425.3-40.9-560.3,6.1-601.2c20.4-18.4,229-87.9,464.2-155.4c1012.2-286.3,959-276.1,1038.8-202.4c28.6,26.6,108.4,175.8,177.9,333.3c69.5,157.5,135,300.6,147.2,317c12.3,20.4,14.3-177.9,8.2-564.4c-10.2-556.2-8.2-599.1,26.6-629.8c32.7-30.7,288.3-32.7,2983.4-32.7c2159.3,0,2960.9,6.1,2997.7,22.5c75.6,34.8,94.1,116.5,94.1,427.4c0,357.8,22.5,728,42.9,691.1c8.2-14.3,53.2-132.9,100.2-261.7c83.8-229,149.3-327.2,216.7-327.2c18.4,0,327.2,83.8,689.1,184c566.4,159.5,666.6,194.3,717.7,245.4l59.3,57.2l-55.2,529.6c-194.3,1840.3-507.1,3286-975.4,4488.3c-208.6,533.7-453.9,936.5-770.9,1265.7c-218.8,229-423.3,390.5-615.5,486.7c-272,139-948.8,329.2-1051,296.5c-22.5-8.2-98.1-57.3-165.6-108.4c-372.2-288.3-869-472.4-1271.9-472.4c-400.8,0-936.5,198.3-1278,476.4c-67.5,53.2-147.2,102.2-177.9,106.3C3508,4489.2,3395.5,4474.9,3289.2,4452.4z M6767.4,4127.3c112.5-22.5,253.6-61.3,314.9-83.8l112.5-40.9l-96.1-126.8c-370.1-486.7-957-803.6-1564.3-846.6l-179.9-12.3v298.5V3612l108.4,24.5c316.9,75.7,695.2,249.5,934.5,429.4c73.6,55.2,141.1,100.2,149.3,100.2C6556.8,4168.2,6657,4149.8,6767.4,4127.3z M3622.5,4016.9c92-59.3,206.5-128.8,253.6-153.4c282.2-141.1,691.1-257.7,983.5-282.2l167.7-12.3V137.9v-3433.2h-163.6h-163.6v3099.9v3099.9l-57.3,55.2c-38.9,40.9-87.9,61.3-157.5,71.6c-163.6,24.5-556.2,161.5-766.8,267.9c-263.8,132.9-527.6,316.9-725.9,505.1c-128.8,124.7-157.5,161.5-135,177.9c63.4,40.9,439.6,139,550.1,143.1C3434.3,4127.3,3532.5,4078.3,3622.5,4016.9z M2800.4,3507.7l94.1-96.1l-151.3-231.1c-294.5-441.7-562.3-1059.2-662.5-1525.4c-38.8-180-45-314.9-69.5-1662.4l-28.6-1466.1L1714.7-2093c-147.2-341.5-276-625.7-282.2-633.9c-14.3-14.3-983.6,261.8-1010.1,286.3c-8.2,8.2-2,157.5,14.3,331.3c173.8,1836.2,633.9,3754.3,1165.5,4858.5c214.7,449.9,445.8,756.6,730,971.3l169.7,126.8l102.2-120.6C2659.4,3659.1,2749.3,3563,2800.4,3507.7z M7587.3,3681.6c198.3-157.5,357.8-337.4,529.6-595c496.9-738.2,952.9-2271.8,1222.8-4112.1c59.3-396.7,165.6-1290.3,165.6-1382.3c0-36.8-53.2-57.2-464.2-182c-257.6-75.7-478.5-139-492.8-141.1c-16.4-2.1-108.4,214.7-247.4,582.8l-222.9,584.8l-12.3,795.4c-22.5,1253.5-63.4,1999.8-126.8,2316.8c-102.2,503-445.8,1265.7-781.1,1725.8l-69.5,98.2l79.8,96.1c45,53.2,116.6,149.3,159.5,214.7c42.9,63.4,83.8,116.6,94.1,116.6C7429.9,3800.1,7505.6,3747,7587.3,3681.6z M3430.2,3076.3c286.3-145.2,582.8-261.8,799.5-312.9l143.1-34.7v-3012v-3012H3317.8H2264.7l10.2,241.3c6.2,130.9,16.4,574.6,22.5,985.6c47,3128.5,51.1,3351.4,81.8,3531.4c65.4,376.3,190.2,723.9,406.9,1143.1c124.7,239.2,349.7,601.2,374.2,601.2C3166.5,3207.2,3289.2,3147.9,3430.2,3076.3z M7057.7,2925c390.6-654.3,599.1-1226.9,646.2-1779c59.3-680.9,96.1-3582.5,53.2-4210.2l-14.3-231.1H6548.6H5354.4v2973.2c0,2691,2,2973.1,32.7,2985.4c18.4,6.1,65.4,12.3,106.3,12.3c341.5,0,1020.4,235.1,1306.6,449.9c42.9,32.7,83.8,59.3,90,59.3C6896.2,3186.7,6971.8,3068.1,7057.7,2925z"/>
<path d="M1966.2-4002.8c-42.9-42.9-49.1-65.4-40.9-126.8c24.5-149.3-259.7-137,3102-137c2862.7,0,3026.3,2,3061.1,36.8c47,47,47,186.1,0,233.1c-34.8,34.8-202.4,36.8-3052.9,42.9l-3016.1,4.1L1966.2-4002.8z"/>
</g>
</g>
</svg>