<?xml version="1.0" encoding="utf-8"?>
<!-- Uploaded to: SVG Repo, www.svgrepo.com, Generator: SVG Repo Mixer Tools -->
<!DOCTYPE svg PUBLIC "-//W3C//DTD SVG 1.1//EN" "http://www.w3.org/Graphics/SVG/1.1/DTD/svg11.dtd">
<svg fill="#000000" width="800px" height="800px" viewBox="0 0 1000 1000" version="1.1" xmlns="http://www.w3.org/2000/svg" xmlns:xlink="http://www.w3.org/1999/xlink"  enable-background="new 0 0 1000 1000" xml:space="preserve">

<g>
<g transform="translate(0.000000,511.000000) scale(0.100000,-0.100000)">
<path d="M1689.5,5005.8c-456.1-72.7-768.9-236.1-988.9-516.6c-211.9-270.4-316.8-565.1-357.2-996.9c-22.2-228-18.2-292.6,50.4-999c42.4-415.7,102.9-1053.4,135.2-1420.7c32.3-365.3,68.6-716.4,80.7-777c66.6-316.8,179.6-589.3,300.7-720.5c58.5-64.6,58.5-64.6,70.6-413.7c44.4-1235.1,58.5-1507.5,74.7-1572.1c12.1-46.4,36.3-80.7,68.6-94.9c38.3-18.2,446-24.2,1515.6-24.2h1463.1l48.4,50.4c28.3,26.2,50.5,68.6,50.5,94.9c0,26.2,22.2,476.3,50.5,1003c44.4,877.9,52.5,958.6,86.8,999c121.1,129.2,240.2,486.3,306.8,906.1c22.2,147.3,72.7,440,111,649.8c157.4,859.7,207.9,1475.2,143.3,1715.4c-70.6,266.4-199.8,395.5-466.2,466.2c-314.8,84.8-571.1-32.3-726.5-333l-44.4-90.8l-12.1,322.9c-12.1,397.5-66.6,625.6-220,936.4c-90.8,183.7-129.2,236.1-286.6,393.5c-149.3,149.3-215.9,199.8-355.2,266.4c-256.3,125.1-367.3,149.3-726.5,157.4C1891.3,5011.8,1723.8,5009.8,1689.5,5005.8z M2407.9,4616.3c421.8-135.2,766.9-565.1,896-1116c18.2-82.7,40.4-399.6,60.5-904.1c18.2-427.8,36.3-797.1,42.4-823.4c16.1-76.7,80.7-125.1,165.5-125.1c113,0,137.2,38.3,163.5,268.4c62.6,498.5,242.2,920.2,433.9,1011.1c86.8,40.4,238.1,42.4,314.8,2c183.6-94.9,177.6-655.9-20.2-1545.8c-22.2-94.8-58.5-316.8-80.7-494.4c-90.8-696.2-205.8-1089.8-333-1138.2c-26.2-10.1-52.5-34.3-58.5-54.5c-4-20.2-28.3-425.8-52.5-904.1c-22.2-476.3-46.4-898-52.5-932.4l-10.1-66.6H2609.7H1340.3l-12.1,246.2c-6.1,137.2-20.2,524.7-32.3,863.7c-28.3,813.3-26.2,797.1-121.1,857.7C1084-182.7,1031.6-102,975.1,69.5c-78.7,234.1-104.9,415.7-195.8,1406.6C730.9,2021,676.4,2582.1,660.2,2723.3c-38.3,329-38.3,653.9-2,847.6c62.6,318.9,220,615.5,429.9,801.2c123.1,111,381.4,234.1,561,272.4C1852.9,4686.9,2234.3,4672.8,2407.9,4616.3z"/>
<path d="M7552,2565.9c-526.7-119.1-910.1-482.3-1101.9-1043.3c-66.6-199.8-102.9-409.7-119.1-692.2c-8.1-133.2-18.2-254.3-22.2-270.4c-6.1-16.2-40.4,22.2-84.8,90.8c-193.7,298.7-460.1,401.6-758.8,288.6C5120.2,812.2,4972.9,461.1,5027.4-104c24.2-264.4,82.8-619.6,143.3-877.9c20.2-90.8,66.6-355.2,100.9-589.3c96.8-663.9,183.6-970.7,326.9-1148.3l64.6-78.7l44.4-849.6c26.2-468.2,46.4-894,48.4-946.5c0-74.7,12.1-107,50.4-145.3l48.4-50.4H7334c1426.8,0,1481.3,2,1543.8,38.3c54.5,34.3,64.6,54.5,74.7,147.3c20.2,181.6,52.5,1035.3,52.5,1372.3v318.8l88.8,109c209.8,258.3,296.6,559,355.2,1239.1c86.7,1005,161.4,1757.8,193.7,1965.6c26.3,163.5,30.3,294.6,22.2,524.7c-12.1,377.4-56.5,565.1-199.8,861.7c-84.7,175.6-125.1,236.1-256.3,365.3c-125.1,125.1-193.7,173.6-345.1,250.2c-288.6,141.3-452.1,175.6-847.6,185.7C7772,2594.2,7648.8,2588.1,7552,2565.9z M8375.3,2281.4c359.2-72.7,649.8-286.6,791.1-581.2c143.3-298.7,199.8-668,163.5-1055.5c-117.1-1227-165.5-1755.7-193.7-2115c-56.5-702.3-151.4-986.8-389.5-1160.4c-44.4-32.3-54.5-185.7-98.9-1489.3l-12.1-347.1H7358.3H6082.8l-12.1,147.3c-12.1,145.3-92.8,1549.9-92.8,1616.5c0,18.2-44.4,76.7-96.9,129.2c-151.4,147.3-222,367.3-324.9,1013.1c-32.3,205.8-90.8,559-131.2,787.1c-153.4,896-147.3,1243.1,22.2,1396.5c50.4,46.4,207.9,86.8,274.4,68.6c193.8-48.4,393.5-454.1,488.4-994.9c16.1-98.9,30.3-205.8,30.3-240.1s20.2-86.8,42.4-117c36.3-46.4,56.5-54.5,125.1-48.4c151.4,12.1,147.3-2,185.7,934.4c34.3,890,48.5,1033.3,125.1,1251.2c159.4,446,452.1,708.3,904.1,807.2C7794.2,2321.7,8187.7,2319.7,8375.3,2281.4z"/>
</g>
</g>
</svg>