<?xml version="1.0" encoding="utf-8"?>
<!-- Uploaded to: SVG Repo, www.svgrepo.com, Generator: SVG Repo Mixer Tools -->
<!DOCTYPE svg PUBLIC "-//W3C//DTD SVG 1.1//EN" "http://www.w3.org/Graphics/SVG/1.1/DTD/svg11.dtd">
<svg fill="#000000" width="800px" height="800px" viewBox="0 0 1000 1000" version="1.1" xmlns="http://www.w3.org/2000/svg" xmlns:xlink="http://www.w3.org/1999/xlink"  enable-background="new 0 0 1000 1000" xml:space="preserve">

<g>
<g transform="translate(0.000000,511.000000) scale(0.100000,-0.100000)">
<path d="M5821.9,4948.4c-67.6-79.5-67.6-161-2-212.7c27.8-21.9,115.3-55.7,192.8-73.6c636.1-153.1,1099.3-465.1,1156.9-775.3c55.7-294.2-339.9-614.2-952.2-769.3c-174.9-45.7-200.8-45.7-1222.5-45.7H3951.4l-218.7,55.7c-260.4,67.6-578.5,214.7-711.6,332c-359.8,318.1-232.6,689.8,330,964.1c125.2,59.6,332,139.2,471.1,178.9c135.2,39.8,262.4,85.5,282.3,103.4c57.6,51.7,47.7,172.9-15.9,222.6c-69.6,53.7-101.4,53.7-349.9-17.9c-560.6-157-984-435.3-1150.9-757.4c-63.6-119.3-67.6-139.2-67.6-326c0-169,7.9-212.7,47.7-294.2c163-334,566.5-588.4,1139-717.6l190.8-43.7l-137.2-246.5c-153.1-278.3-159-312.1-93.4-506.9c77.5-240.5,280.3-495,532.7-671.9c47.7-33.8,47.7-33.8,13.9-89.5c-169-254.4-403.5-868.7-497-1296.1c-135.2-608.3-262.4-1958-286.3-3011.6c-7.9-417.5-6-568.5,11.9-602.3c13.9-25.8,351.8-290.2,751.4-590.4c556.6-417.4,741.5-546.7,785.2-546.7s220.6,127.2,779.2,554.6c397.6,306.1,727.5,570.5,735.5,588.4c17.9,49.7,13.9,733.5-8,1282.1c-33.8,783.2-107.3,1606.2-190.8,2107.1c-93.4,562.5-308.1,1164.9-526.8,1484.9l-57.6,81.5l143.1,105.4c172.9,129.2,333.9,320,425.4,506.9c115.3,232.6,113.3,254.4-47.7,578.5l-141.2,280.3l89.5,13.9c165,23.9,435.4,111.3,616.2,198.8c330,159,558.6,371.7,646,606.3c61.6,165,47.7,383.7-39.8,554.6c-129.2,252.5-435.3,491-846.8,660c-196.8,79.5-580.4,196.8-648,196.8C5889.5,5010,5849.8,4982.2,5821.9,4948.4z M5935.2,2475.5l157-268.4l-75.5-123.2c-101.4-170.9-383.7-445.3-544.7-532.7c-127.2-69.6-129.2-71.6-135.2-159c-6-79.5,4-103.4,75.5-198.8c250.5-334,463.2-892.5,564.6-1484.9c111.3-640.1,210.7-2007.7,210.7-2878.4l-2-357.8l-596.3-453.2c-399.6-304.1-606.3-451.2-628.2-443.3c-15.9,7.9-298.2,210.7-624.2,455.2l-594.4,441.3v337.9c0,763.3,135.2,2311.8,250.5,2902.2c101.4,510.9,306.1,1041.6,542.7,1405.4c167,258.4,161,339.9-27.8,391.6c-188.8,49.7-419.4,270.3-524.8,500.9l-57.6,127.2l95.4,178.9c51.7,99.4,123.3,234.6,157,304.1l61.6,123.3h771.3h769.3L5935.2,2475.5z"/>
</g>
</g>
</svg>